<?xml version="1.0" encoding="UTF-8"?>
<svg width="24" height="24" version="1.1" viewBox="0 0 48 48" xmlns="http://www.w3.org/2000/svg"><path d="m6 19v-11.5h3v6.55q2.4-3.65 6.35-5.85t8.65-2.2q6.4 0 11.2 3.78t6.25 9.22h-3.1q-1.45-4.2-5.35-7.1t-9-2.9q-4.05 0-7.38 1.92t-5.32 5.08h6.2v3zm5.8 17.2h24.4l-7.35-9.8-6.6 8.55-4.65-6.35zm-2.8 7.85q-1.25 0-2.12-.875t-.875-2.12v-18h3v18h30v-18h3v18q0 1.25-.875 2.12t-2.12.875z"/><path d="m22.93 21.58q0 .9219.01563 1.516.0078.1875.2031.2422l1.078.3281.01562.3359q-1.133-.02344-2.062-.02344-.9297 0-1.938.02344l-.03125-.3359.9609-.2891q.2031-.0625.2109-.2422.01562-.6328.01562-1.555v-6.336q0-.3984-.0078-.7188 0-.3203-.0078-.5781-.0078-.2031-.1875-.2656l-.9688-.3047-.01562-.3359q1.008.03125 1.938.03125h1.898q1.75 0 3.695-.03125l.04687.0625-.4531 2.414-.3125.05469-.4844-1.805h-3.609v4.461h.75q.8125 0 1.812-.01563.2109-.0078.2656-.2031l.3203-1.055.375-.01563q-.02344 1.094-.02344 1.617 0 .5078.02344 1.594l-.375.03125-.3281-1.07q-.0625-.2031-.2344-.2109-1.023-.01563-1.844-.01563h-.7422z" style="stroke-linecap:round;stroke-width:.2" aria-label="F"/></svg>
