<?xml version="1.0" encoding="UTF-8"?>
<svg width="24" height="24" version="1.1" viewBox="0 0 48 48" xmlns="http://www.w3.org/2000/svg"><path d="m6 19v-11.5h3v6.55q2.4-3.65 6.35-5.85t8.65-2.2q6.4 0 11.2 3.78t6.25 9.22h-3.1q-1.45-4.2-5.35-7.1t-9-2.9q-4.05 0-7.38 1.92t-5.32 5.08h6.2v3zm5.8 17.2h24.4l-7.35-9.8-6.6 8.55-4.65-6.35zm-2.8 7.85q-1.25 0-2.12-.875t-.875-2.12v-18h3v18h30v-18h3v18q0 1.25-.875 2.12t-2.12.875z"/><path d="m20.21 13.04q1.008.03125 1.961.03125.3594-.01563 1.164-.04687.8047-.03125 1.086-.03125 1.688 0 2.547.6406.8672.6328.8672 1.828 0 1.922-2.07 2.617 1.211.2031 1.898.8984.6953.6953.6953 1.773 0 1.562-1.133 2.422-1.133.8516-3.141.8516-.3984 0-.8672-.02344-.4609-.02344-1.039-.02344-.9453 0-1.938.02344l-.03125-.3359.9609-.2891q.1953-.05469.2109-.2422.0078-.3125.0078-.6953.0078-.3906.0078-.8594v-6.336q0-.3984-.0078-.7188 0-.3203-.0078-.5781-.0078-.2031-.1875-.2656l-.9688-.3047zm2.703 5.5v4.742q.2344.08594.5391.1094.3125.02344.5703.02344 1.297 0 1.969-.6406.6797-.6406.6797-1.859t-.6875-1.805q-.6797-.5938-2.203-.5938-.4453 0-.8672.02344zm0-.625q.4844.0078.9844.0078 1.156 0 1.742-.5547.5938-.5625.5938-1.625 0-1.117-.6094-1.602-.6016-.4922-1.742-.4922-.2031 0-.4453.01563-.2422.0078-.5234.03906z" style="stroke-linecap:round;stroke-width:.2" aria-label="B"/></svg>
