<svg width="24" height="24" version="1.1" viewBox="0 0 48 48" xmlns="http://www.w3.org/2000/svg"><path d="m6 19v-11.5h3v6.55q2.4-3.65 6.35-5.85t8.65-2.2q6.4 0 11.2 3.78t6.25 9.22h-3.1q-1.45-4.2-5.35-7.1t-9-2.9q-4.05 0-7.38 1.92t-5.32 5.08h6.2v3zm5.8 17.2h24.4l-7.35-9.8-6.6 8.55-4.65-6.35zm-2.8 7.85q-1.25 0-2.12-.875t-.875-2.12v-18h3v18h30v-18h3v18q0 1.25-.875 2.12t-2.12.875z"/><g transform="translate(1.21 -8.73)" stroke-width="2" style="mix-blend-mode:multiply" aria-label="el"><path d="m18.1 30.2q0 1.89 1.16 3.13 1.17 1.23 3.15 1.23 1.5 0 2.5-.303l-.137.781q-.303.0977-.938.186-.635.0977-1.35.0977-2.59 0-3.9-1.36-1.3-1.37-1.3-3.37 0-1.06.254-1.97.264-.908.781-1.66 1.23-1.6 3.16-1.6 1.74 0 2.7 1.12.967 1.12.967 2.77 0 .537-.0391.859zm.0586-.693h6.12q0-1.65-.713-2.54t-2.11-.889q-1.3 0-2.19.879-.879.869-1.11 2.55z"/><path d="m27.6 21.3 1.16-.0391q-.117 2.58-.117 6.49 0 3.89.156 7.3h-1.14q.186-3.04.186-7.3 0-3.59-.244-6.46z"/></g></svg>
